<svg
  width="40"
  viewBox="0 0 400 225"
  fill="none"
  xmlns="http://www.w3.org/2000/svg">
  <path d="M274.648 216.697C275.946 216.516 277.224 216.241 278.502 215.904C277.155 213.967 275.543 214.529 274.648 216.697ZM88.0299 135.48C102.909 162.525 128.238 168.991 152.677 168.835C159.17 168.667 164.43 165.587 170.712 164.831C184.731 163.363 195.136 162.007 206.825 151.036C203.335 154.597 200.126 158.639 196.085 161.057C199.58 164.687 204.451 171.765 206.28 176.982C219.915 173.321 222.899 180.737 224.924 184.273C220.411 177.107 210.124 176.207 204.259 180.356C203.031 178.181 202.883 177.657 201.674 178.45C200.307 171.878 198.046 171.709 194.768 176.895C185.954 180.98 180.007 198.779 185.153 203.477C187.64 201.303 192.246 197.205 190.428 192.163C192.846 196.48 190.821 200.735 187.926 203.771C188.584 203.596 189.322 203.315 190.142 202.928C192.079 201.097 193.224 196.043 193.205 192.969C200.052 192.894 203.296 189.452 200.16 180.268C204.992 188.19 202.903 194.525 194.846 195.187C194.478 197.561 194.001 199.692 193.126 201.834C196.355 200.841 204.382 199.642 207.164 200.566C227.578 206.083 230.999 183.429 231.343 162.744C227.391 157.452 225.499 151.18 224.698 143.995C226.62 141.234 224.55 137.717 222.422 134.568C224.496 136.773 228.561 141.028 226.605 144.676C227.735 154.11 231.196 161.063 237.566 166.155C239.041 173.265 243.293 183.279 242.501 190.814C242.688 191.982 243.322 193.094 244.389 194.131C248.238 198.286 248.011 203.234 252.686 207.557C255.178 209.281 265.869 211.462 271.35 210.893C265.151 211.868 257.877 211.318 252.362 209.819C252.244 210.812 252.076 212.817 253.045 213.23C257.193 215.067 261.244 216.241 265.205 216.76C266.862 212.98 270.322 212.755 271.551 217.003L272.608 216.935C273.576 213.33 276.334 210.912 279.057 213.436C279.49 212.336 280.227 211.68 281.102 211.224L281.122 211.212C277.061 207.307 271.315 203.865 267.978 199.816C266.021 200.86 261.981 201.572 260.895 200.86C263.505 199.948 264.734 199.392 266.626 198.036C266.449 197.767 266.292 197.517 266.164 197.286C260.015 200.885 256.466 196.73 253.084 200.379C254.48 195.956 261.981 198.986 265.55 195.112C265.235 193.507 264.635 192.007 264.006 190.564C264.611 186.153 265.092 181.661 265.092 177.169C266.026 154.679 274.053 155.434 269.865 122.392C271.35 129.501 272.19 134.187 272.382 142.44C277.258 137.136 279.062 131.644 280.094 123.797C283.594 115.726 289.016 79.2279 280.841 75.342C280.404 68.1949 273.272 51.183 270.499 44.3858C273.655 50.777 281.51 66.5768 282.532 73.7614C290.171 79.5091 286.592 114.17 281.839 124.541C280.94 133.212 277.73 140.284 272.235 145.545L272.176 146.288C274.201 147.594 277.106 146.907 279.165 146.157C284.066 141.578 287.315 133.131 290.136 124.353C288.151 132.981 285.963 141.284 280.768 147.456C281.131 150.518 281.947 153.479 282.994 156.265C290.569 169.972 310.167 203.552 325.331 196.836C321.801 192.413 322.17 185.122 318.975 180.006C324.466 186.466 323.979 193.875 328.747 197.111C330.674 197.286 332.945 196.249 334.409 194.712C335.142 191.832 331.745 185.76 329.804 184.498C332.188 186.16 335.781 189.508 336.267 193.063C337.786 191.301 338.435 190.12 339.512 188.127C339.625 177.744 329.946 185.885 326.889 178.4C331.16 183.429 339.472 177.063 340.976 184.941C349.78 164.362 328.501 169.198 327.1 156.671C326.555 153.854 323.635 150.936 321.772 149.356C324.023 151.074 327.7 154.554 327.897 156.665C329.189 166.449 347.45 163.206 344.869 179.437C357.556 174.058 403.525 147.506 399.784 130.62C394.716 135.574 391.197 143.133 385.397 148.031C371.354 158.108 358.913 156.184 346.034 150.443C335.653 145.407 337.998 126.353 326.643 119.63C323.188 102.875 326.987 90.2047 324.19 76.1792C319.378 69.6818 318.248 69.5443 317.441 60.1482C315.534 56.9495 313.062 55.3439 310.167 53.9757C306.003 48.9465 298.625 34.115 295.234 27.6988C294.388 21.4451 294.722 17.5155 288.391 17.5904C279.799 10.1872 277.288 10.7495 266.193 11.6116C253.345 13.4546 255.483 8.36293 248.336 5.18297C231.687 -1.73297 220.982 -0.608426 204.141 6.29502C183.669 10.8682 148.116 8.42541 126.409 0.341189C122.693 -1.75796 106.335 6.45745 100.166 7.88187C72.861 19.2023 58.2032 -0.808352 34.2063 28.8858C-4.56641 78.1908 22.7976 99.1073 10.3666 122.679C6.43917 124.21 1.52869 126.771 0 132.088C10.632 136.623 15.4049 116.35 15.051 105.855C16.0193 85.1318 19.3814 61.9537 27.4722 45.4416C21.4606 60.1981 16.4912 84.8444 18.9194 105.755C21.3279 122.998 28.9615 140.665 44.7252 143.252C40.4636 143.252 37.7994 142.558 34.0785 140.353C33.1544 141.709 31.9354 143.433 32.6579 145.232C31.0702 149.806 25.1865 150.018 26.7938 153.16C21.8686 155.709 8.83297 162.463 13.424 171.803C19.5141 181.986 17.7446 197.661 6.58664 196.255C1.93175 195.381 12.087 213.636 14.4218 215.098C17.2285 213.773 19.4797 215.629 19.0324 219.515C19.2389 219.683 19.5043 219.877 19.8386 220.108C22.0996 217.397 24.695 217.553 26.0811 221.214C26.9806 220.046 28.3324 219.783 29.5612 219.89C29.8561 216.185 29.3941 213.067 27.8703 209.869C27.4623 206.139 31.7682 193.613 32.9528 190.039C34.3832 186.522 48.4757 175.139 54.4823 165.237C63.4087 150.543 77.1423 157.396 86.4619 134.83C95.1376 113.82 94.7689 79.4403 92.4144 56.1435C95.2949 79.5653 96.6859 114.189 88.0299 135.48ZM335.8 141.109C331.465 121.917 326.196 136.911 320.037 129.083C325.793 135.199 332.222 119.293 335.8 141.109ZM331.023 135.361C331.224 135.842 331.332 136.38 331.332 136.961C331.332 138.854 330.123 140.409 328.624 140.409C327.125 140.409 325.916 138.86 325.916 136.961C325.916 135.892 326.294 134.937 326.889 134.306C325.886 134.274 324.672 134.256 323.217 134.168C330.457 132.906 333.033 128.852 333.112 144.845C332.507 139.122 332.143 136.548 331.023 135.361ZM330.782 142.665C328.137 143.427 323.615 141.34 323.438 136.199C324.957 139.61 327.095 141.134 330.782 142.665ZM320.651 136.929C321.777 139.922 325.572 146.607 329.219 144.932C324.859 147.963 322.141 141.221 320.651 136.929ZM320.386 144.095C318.685 143.583 315.402 139.966 315.795 136.011C317.009 139.947 318.97 142.321 320.386 144.095ZM321.393 143.814C324.176 148.237 327.194 148.975 330.752 146.719C325.876 150.861 323.384 149.693 321.393 143.814ZM323.315 158.727C322.839 161.432 325.753 166.83 331.121 166.005C327.012 164.406 324.564 160.914 323.315 158.727ZM328.314 167.136C331.593 172.459 338.337 171.659 341.252 175.745C339.659 171.147 331.244 170.691 328.314 167.136ZM295.794 127.021C300.272 116.731 313.298 122.304 310.963 102.3C311.219 122.485 298.124 114.326 295.794 127.021ZM300.095 106.198C300.675 109.416 299.063 117.362 294.663 119.312C297.986 114.651 299.176 109.759 300.095 106.198ZM299.23 83.5886C300.867 86.4375 302.11 95.059 298.758 99.2448C300.198 92.9661 299.613 87.5558 299.23 83.5886ZM295.42 73.0304C297.455 80.14 299.205 97.9016 294.944 107.916C296.492 98.0703 296.128 82.5078 295.42 73.0304ZM305.875 128.221C304.873 133.743 297.701 144.458 289.753 143.277C297.632 139.254 302.351 132.837 305.875 128.221ZM304.617 137.973C303.836 142.296 298.212 150.693 291.989 149.762C298.153 146.613 301.86 141.59 304.617 137.973ZM288.426 67.1641C291.218 68.3074 296.718 94.2968 291.862 101.831C293.444 90.2359 291.262 75.6544 288.426 67.1641ZM254.215 204.427C259.73 205.845 262.61 203.515 268.071 204.733C263.475 204.658 260.708 207.663 254.215 204.427ZM251.167 202.103C253.841 200.223 257.793 201.216 258.894 201.591C255.724 201.859 252.568 201.316 251.167 202.103ZM242.949 123.785C252.804 122.254 252.106 115.682 266.056 120.711C253.276 118.256 253.61 124.047 242.949 123.785ZM200.828 148.4C205.036 146.02 213.692 140.865 216.828 137.104C212.404 144.614 206.82 146.919 200.828 148.4ZM221.429 185.047C217.31 182.299 214.405 181.187 210.099 180.812C213.712 179.837 218.16 180.418 221.429 185.047ZM191.897 191.395C195.21 190.389 197.815 186.266 198.317 180.724C198.961 187.734 197.265 190.876 191.897 191.395ZM55.8586 124.047C46.947 123.772 40.6258 117.831 38.7481 112.364C42.7099 117.144 49.5767 121.848 55.8586 124.047ZM56.9252 119.355C50.7908 113.589 45.6002 110.478 37.2833 106.992C46.5587 107.16 54.1579 114.439 56.9252 119.355ZM63.1875 103.218C48.1955 102.531 37.2981 91.1481 34.6192 84.1572C39.5198 90.1985 52.4473 100.744 63.1875 103.218ZM50.3091 159.47C43.6242 160.651 37.3816 158.458 32.6284 154.554C39.9671 157.796 42.5624 158.365 50.3091 159.47ZM60.543 151.792C55.5833 155.603 45.5756 152.267 41.3287 149.349C47.6106 151.055 54.1431 152.461 60.543 151.792ZM345.852 147.888C346.767 143.046 359.213 122.567 358.406 120.774C357.025 118.2 343.857 128.439 335.525 127.108C338.573 133.525 340.244 144.533 345.852 147.888ZM16.1667 216.966C16.5256 217.322 16.8746 217.665 17.2334 217.984C17.0564 217.253 16.791 216.947 16.1667 216.966ZM324.706 73.5115C324.883 73.2241 324.819 73.3178 325.041 72.9929C322.686 68.6135 320.838 63.5405 320.769 58.1615C320.209 58.4676 319.707 58.7925 319.186 59.1986C319.904 67.8076 320.322 67.6014 324.706 73.5115ZM326.284 71.2249L326.599 70.8063C327.321 66.9329 325.552 60.5355 324.407 56.887C323.797 57.0869 323.188 57.2681 322.583 57.4368C322.494 62.4285 324.161 67.1266 326.284 71.2249ZM328.56 69.2632C339.546 68.3448 345.194 54.7316 346.924 41.9743C338.843 47.7407 336.946 51.7641 326.166 56.2747C327.356 60.0982 328.673 65.0961 328.56 69.2632ZM328.658 134.605C327.651 134.605 326.825 135.636 326.825 136.936C326.825 138.216 327.651 139.247 328.658 139.247C329.671 139.247 330.477 138.216 330.477 136.936C330.477 135.655 329.666 134.605 328.658 134.605ZM21.613 221.208C22.6305 221.795 23.6529 222.351 24.6802 222.901C24.115 220.839 23.1515 219.79 21.613 221.208ZM26.6611 223.919L28.7354 225C28.9665 224.032 29.1483 223.088 29.2958 222.176C28.0325 221.845 27.192 222.657 26.6611 223.919ZM81.1729 222.951C83.8469 223.063 88.3838 222.595 90.2811 222.114C96.0223 223.982 99.9202 221.47 104.541 222.638C105.75 220.714 107.824 219.715 109.608 220.97C109.8 220.314 110.134 219.702 110.587 219.296C107.431 215.829 101.188 210.7 97.3937 207.513C96.8186 203.384 92.7438 200.304 91.102 192.363C92.0212 187.09 77.6584 172.353 78.8234 149.793C72.3842 156.028 61.6932 156.959 56.2371 165.737C61.5113 171.94 64.7211 186.141 65.7238 196.006C68.9532 207.682 78.376 205.283 82.4362 213.742C83.9599 218.115 80.6027 218.34 81.1729 222.951ZM109.274 223.582C108.562 222.401 107.451 222.545 106.556 223.332C107.554 223.707 108.458 223.788 109.274 223.582ZM111.82 221.083C111.412 221.177 111.245 221.87 111.216 222.326C111.452 222.07 111.668 221.776 111.87 221.439C111.889 221.345 111.87 221.22 111.82 221.083ZM267.299 216.966C268.056 217.016 268.804 217.041 269.551 217.047H269.565C268.941 215.816 268.032 215.972 267.299 216.966ZM280.605 215.266C281.662 214.91 282.714 214.492 283.761 214.036C283.486 213.692 283.176 213.33 282.822 212.949C281.898 213.217 280.458 213.748 280.605 215.266Z" fill="#f16527" />
</svg>
